<?xml version="1.0" encoding="UTF-8"?>
<!DOCTYPE svg PUBLIC "-//W3C//DTD SVG 1.1//EN" "http://www.w3.org/Graphics/SVG/1.1/DTD/svg11.dtd">
<!-- Creator: CorelDRAW 2020 (64-Bit) -->
<svg xmlns="http://www.w3.org/2000/svg" xml:space="preserve" width="1432px" height="361px" version="1.1" style="shape-rendering:geometricPrecision; text-rendering:geometricPrecision; image-rendering:optimizeQuality; fill-rule:evenodd; clip-rule:evenodd"
viewBox="0 0 1286.53 324.14"
 xmlns:xlink="http://www.w3.org/1999/xlink"
 xmlns:xodm="http://www.corel.com/coreldraw/odm/2003">
 <defs>
  <style type="text/css">
   <![CDATA[
    .fil1 {fill:#47115F}
    .fil2 {fill:#FE9900}
    .fil0 {fill:#020202;fill-rule:nonzero}
    .fil4 {fill:#47115F;fill-rule:nonzero}
    .fil3 {fill:#FE9900;fill-rule:nonzero}
   ]]>
  </style>
 </defs>
 <g id="Слой_x0020_1">
  <metadata id="CorelCorpID_0Corel-Layer"/>
  <path class="fil0" d="M269.53 82.89l0 8.4 -17.76 9.69 0 -12.99 -58.5 -33.78 0.01 -0.02 -58.52 -33.78 -58.51 33.78 0.01 0.02 -58.51 33.78 0 135.18 6.98 4.03 0 20.41 -24.73 -14.28 0 -155.54 67.38 -38.91 0.04 0 67.34 -38.88 67.35 38.88 0.04 0 67.38 38.91 0 5.1zm0 135.67l0 14.79 -67.38 38.9 -0.04 0 -67.36 38.89 -25.7 -14.83 17.15 -10.55 8.58 4.95 58.5 -33.77 -0.01 -0.01 58.5 -33.78 0 -13.86 17.76 9.27z"/>
  <polygon class="fil1" points="32.23,102.08 239.73,212.39 34.82,324.14 "/>
  <polygon class="fil2" points="291.02,220.35 168.15,155.03 289.49,88.86 "/>
  <path class="fil0" d="M944.87 132.69l0 11.49 -23.41 0 0 68.91c0,4.49 0.58,8.02 1.76,10.56 1.14,2.54 3.57,3.79 7.29,3.79 1.69,0 3.61,-0.59 5.78,-1.77 2.13,-1.14 3.83,-2.39 5.04,-3.71l4.42 5.96c-4.31,5.12 -8.47,8.84 -12.52,11.19 -4.04,2.39 -8.65,3.57 -13.76,3.57 -7.73,0 -13.47,-1.47 -17.19,-4.45 -3.76,-2.95 -6.04,-6.37 -6.92,-10.2 -0.85,-3.83 -1.29,-8.28 -1.29,-13.4l0 -70.45 -16.12 0 0 -11.49c7.06,0 13.03,-2.09 17.89,-6.29 4.85,-4.2 8.5,-9.64 10.96,-16.38 2.47,-6.74 3.83,-13.91 4.02,-21.5l10.64 0 0 44.17 23.41 0z"/>
  <path class="fil3" d="M813.46 98.02c0,-3.57 1.39,-7.03 4.19,-10.38 2.76,-3.39 6.55,-5.08 11.3,-5.08 4.27,0 7.92,1.47 10.93,4.45 2.99,2.95 4.5,6.63 4.5,11.01 0,4.38 -1.51,8.06 -4.5,11.01 -3.01,2.98 -6.66,4.45 -10.93,4.45 -4.75,0 -8.54,-1.69 -11.3,-5.08 -2.8,-3.35 -4.19,-6.81 -4.19,-10.38z"/>
  <path class="fil0" d="M842.65 133.58l0 91.17c0,2.91 0.58,4.94 1.73,6.08 1.14,1.14 3.35,1.69 6.62,1.69l3.57 0 0 7.73 -51.31 0 0 -7.73 3.57 0c3.31,0 5.52,-0.55 6.7,-1.69 1.14,-1.14 1.69,-3.17 1.69,-6.08l0 -58.27c0,-4.56 -2.13,-6.84 -6.4,-6.84l-5.08 0 0 -6.63c12.4,-0.51 22.45,-6.99 30.07,-19.43l8.84 0z"/>
  <path class="fil0" d="M737.48 214.23l0 -57.91c-6.29,-6.03 -13.22,-9.05 -20.76,-9.05 -3.64,0 -7.36,1.14 -11.12,3.39 -3.75,2.24 -6.99,6.36 -9.75,12.4 -2.73,6 -4.09,14.14 -4.09,24.41 0,12.03 2.21,21.35 6.67,27.9 4.41,6.59 10.96,9.86 19.58,9.86 6.51,0 12.99,-3.68 19.47,-11zm0 13.47l-1.36 0c-4.2,4.05 -8.21,7.18 -12.08,9.39 -3.82,2.17 -7.51,3.68 -11,4.45 -3.5,0.77 -7.07,1.14 -10.71,1.14 -9.13,0 -16.53,-1.8 -22.24,-5.45 -5.74,-3.64 -9.94,-8.1 -12.66,-13.43 -2.69,-5.3 -4.49,-10.6 -5.34,-15.87 -0.84,-5.22 -1.25,-10.16 -1.25,-14.72 0,-8.8 2.06,-17.63 6.19,-26.54 4.08,-8.91 10.12,-16.27 18.11,-22.12 7.95,-5.86 17.3,-8.77 28.05,-8.77 8.24,0 15.9,2.58 22.93,7.7l1.36 0 0 -25.8c0,-4.27 -0.37,-7.04 -1.07,-8.21 -0.7,-1.22 -2.39,-1.88 -5.11,-1.99l-3.8 0 -1.28 0 0 -6.63c13.17,-1.87 22.74,-8.32 28.67,-19.4l9.98 0 0 141.61c0,3.54 0.47,6 1.47,7.4 0.99,1.4 3.27,2.1 6.88,2.1l3.57 0 0 7.69 -39.31 0 0 -12.55zm-188.13 -94.12l10.12 0 0 70.19c0,6.81 0.55,11.67 1.66,14.58 1.14,2.94 3.79,4.42 8.06,4.42 3.72,0 9.01,-1.37 15.86,-4.05 6.88,-2.69 11.82,-5.08 14.84,-7.18l0 -44.87c0,-4.12 -2.07,-6.19 -6.19,-6.19l-5.3 0 0 -6.62c12.04,-1.29 21.68,-8.06 28.9,-20.28l9.97 0 0 91.17c0,3.06 0.63,5.12 1.88,6.19 1.25,1.07 3.42,1.58 6.48,1.58l3.57 0 0 7.73 -39.31 0 0 -14.58 -1.99 0c-16.38,11.34 -31.18,17.01 -44.43,17.01 -5.67,0 -10.64,-1.14 -14.95,-3.42 -4.3,-2.29 -6.44,-7.4 -6.44,-15.35l0 -57.2c0,-4.16 -2.13,-6.23 -6.4,-6.23l-5.3 0 0 -6.62c5.78,-0.3 11.22,-2.39 16.38,-6.26 5.11,-3.9 9.31,-8.58 12.59,-14.02zm-126.33 -7.55l-20.07 55.03 42.81 0 -20.1 -55.03 -2.64 0zm18.33 -40.38l44.87 121.29c2.21,5.92 4.45,10.89 6.77,14.87 2.32,4.01 5.52,6.4 9.57,7.18 0.99,0.14 3.06,0.22 6.15,0.22l0 11.04 -57.39 0 0 -11.04 7.29 0c2.06,0 3.2,-0.74 3.5,-2.21l0 -1.51c0,-0.37 -0.44,-1.77 -1.29,-4.2l-9.5 -26.98 -53.48 0 -8.36 23.64c-0.11,0.44 -0.48,1.73 -1.18,3.75 -0.66,2.06 -1.06,3.46 -1.25,4.23l0 1.51c0.52,1.18 2.36,1.77 5.52,1.77l5.49 0 0 11.04 -44.61 0 0 -11.04c4.3,-0.22 7.8,-0.85 10.45,-1.88 2.69,-1.07 4.71,-2.35 6.07,-3.94 1.4,-1.58 2.36,-3.02 2.91,-4.27 0.52,-1.25 1.58,-4.01 3.13,-8.24l34.23 -90.55c1.77,-5.16 2.65,-8.32 2.65,-9.5 0,-3.39 -2.65,-5.08 -7.98,-5.08l-2.43 0 0 -7.11c6.47,-0.33 11.55,-1.28 15.24,-2.94 3.68,-1.62 8.53,-4.97 14.57,-10.05l9.06 0z"/>
  <path class="fil4" d="M967.39 88.96l70.68 0c35.15,0 58.82,7.73 70.97,23.19 12.18,15.5 18.25,32.21 18.25,50.25 0,10.2 -1.73,19.95 -5.22,29.3 -3.5,9.35 -8.73,17.7 -15.65,25.03 -6.95,7.32 -15.64,13.07 -26.1,17.26 -10.41,4.16 -22.26,6.26 -35.63,6.26l-77.3 0 0 -11.04 4.24 0c4.41,0 7.62,-0.77 9.57,-2.36 1.98,-1.58 2.98,-4.64 2.98,-9.13l0 -106.23c0,-4.49 -1,-7.54 -2.98,-9.13 -1.95,-1.54 -5.16,-2.35 -9.57,-2.35l-4.24 0 0 -11.05zm52.13 24.74l0 101.81c0,4.86 1.03,7.96 3.09,9.28 2.06,1.33 5.23,2.06 9.46,2.21l6.66 0c32.91,-0.99 49.69,-21.72 50.36,-62.17l0 -10.35c-0.34,-8.87 -1.95,-17.11 -4.94,-24.77 -2.98,-7.62 -8.09,-13.99 -15.35,-19.1 -7.25,-5.08 -16.89,-7.81 -28.97,-8.17l-8.17 0c-4.05,0 -7.06,0.66 -9.09,1.95 -2.02,1.29 -3.05,4.38 -3.05,9.31zm129.64 -24.74l66.48 0c10.97,0 20.87,0.67 29.74,1.95 8.91,1.29 16.78,4.57 23.71,9.83 6.92,5.23 10.38,13.18 10.38,23.75 0,6.03 -1.66,11.41 -5.01,16.12 -3.35,4.67 -7.62,8.43 -12.77,11.22 -5.16,2.76 -10.27,4.46 -15.39,5.08l0 1.99c7.03,0.41 13.66,2.21 19.8,5.41 6.15,3.21 11.08,7.73 14.84,13.51 3.72,5.82 5.59,12.52 5.59,20.1 0,12.63 -3.79,22.05 -11.41,28.34 -7.62,6.26 -15.57,10.16 -23.78,11.71 -8.24,1.51 -15.64,2.28 -22.23,2.28l-80.13 0 0 -11.04 4.41 0c5.16,0 8.54,-1.03 10.16,-3.06 1.59,-2.06 2.39,-5.81 2.39,-11.26l0 -100.56c0,-3.61 -0.29,-6.45 -0.92,-8.47 -0.59,-2.02 -1.8,-3.53 -3.57,-4.46 -1.8,-0.92 -4.49,-1.39 -8.06,-1.39l-4.23 0 0 -11.05zm52.12 24.74l0 39.02c1.62,0.15 3.98,0.22 7.07,0.22 22.53,0 33.79,-7.88 33.79,-23.6 0,-10.34 -3.02,-17.44 -9.09,-21.31 -6.04,-3.86 -12.44,-5.81 -19.22,-5.81 -5.52,0 -9.02,0.88 -10.41,2.65 -1.44,1.73 -2.14,4.67 -2.14,8.83zm0 53.34l0 48.47c0,4.13 0.74,7.04 2.17,8.73 1.44,1.73 4.9,2.65 10.38,2.76l1.59 0c8.61,-0.15 15.42,-2.06 20.32,-5.78 4.93,-3.72 8.31,-7.95 10.12,-12.7 1.8,-4.71 2.69,-8.98 2.69,-12.81 0,-2.32 -0.41,-4.93 -1.26,-7.8 -0.81,-2.91 -2.39,-5.85 -4.67,-8.87 -2.28,-3.02 -5.6,-5.63 -9.98,-7.88 -4.38,-2.25 -9.97,-3.64 -16.82,-4.12l-14.54 0z"/>
 </g>
</svg>
